<svg id="visual" viewBox="0 0 900 600" width="900" height="600" xmlns="http://www.w3.org/2000/svg" xmlns:xlink="http://www.w3.org/1999/xlink" version="1.1">
    <path d="M0 425L21.5 413C43 401 86 377 128.8 380.2C171.7 383.3 214.3 413.7 257.2 415.7C300 417.7 343 391.3 385.8 376.5C428.7 361.7 471.3 358.3 514.2 359.5C557 360.7 600 366.3 642.8 373.2C685.7 380 728.3 388 771.2 398.3C814 408.7 857 421.3 878.5 427.7L900 434L900 601L878.5 601C857 601 814 601 771.2 601C728.3 601 685.7 601 642.8 601C600 601 557 601 514.2 601C471.3 601 428.7 601 385.8 601C343 601 300 601 257.2 601C214.3 601 171.7 601 128.8 601C86 601 43 601 21.5 601L0 601Z" fill="#ff749e"></path>
    <path d="M0 462L21.5 455.8C43 449.7 86 437.3 128.8 430C171.7 422.7 214.3 420.3 257.2 423.2C300 426 343 434 385.8 440.7C428.7 447.3 471.3 452.7 514.2 455.3C557 458 600 458 642.8 457.8C685.7 457.7 728.3 457.3 771.2 447.5C814 437.7 857 418.3 878.5 408.7L900 399L900 601L878.5 601C857 601 814 601 771.2 601C728.3 601 685.7 601 642.8 601C600 601 557 601 514.2 601C471.3 601 428.7 601 385.8 601C343 601 300 601 257.2 601C214.3 601 171.7 601 128.8 601C86 601 43 601 21.5 601L0 601Z" fill="#ff4e83"></path>
    <path d="M0 438L21.5 444.5C43 451 86 464 128.8 473.8C171.7 483.7 214.3 490.3 257.2 492.3C300 494.3 343 491.7 385.8 486.8C428.7 482 471.3 475 514.2 466.3C557 457.7 600 447.3 642.8 449.3C685.7 451.3 728.3 465.7 771.2 470.2C814 474.7 857 469.3 878.5 466.7L900 464L900 601L878.5 601C857 601 814 601 771.2 601C728.3 601 685.7 601 642.8 601C600 601 557 601 514.2 601C471.3 601 428.7 601 385.8 601C343 601 300 601 257.2 601C214.3 601 171.7 601 128.8 601C86 601 43 601 21.5 601L0 601Z" fill="#ff0066"></path>
    <path d="M0 525L21.5 522.7C43 520.3 86 515.7 128.8 514.5C171.7 513.3 214.3 515.7 257.2 519.7C300 523.7 343 529.3 385.8 527.5C428.7 525.7 471.3 516.3 514.2 510.2C557 504 600 501 642.8 505.8C685.7 510.7 728.3 523.3 771.2 528.7C814 534 857 532 878.5 531L900 530L900 601L878.5 601C857 601 814 601 771.2 601C728.3 601 685.7 601 642.8 601C600 601 557 601 514.2 601C471.3 601 428.7 601 385.8 601C343 601 300 601 257.2 601C214.3 601 171.7 601 128.8 601C86 601 43 601 21.5 601L0 601Z" fill="#dd005a"></path>
    <path d="M0 572L21.5 566.8C43 561.7 86 551.3 128.8 546.7C171.7 542 214.3 543 257.2 543.7C300 544.3 343 544.7 385.8 549.3C428.7 554 471.3 563 514.2 560C557 557 600 542 642.8 538.3C685.7 534.7 728.3 542.3 771.2 549.8C814 557.3 857 564.7 878.5 568.3L900 572L900 601L878.5 601C857 601 814 601 771.2 601C728.3 601 685.7 601 642.8 601C600 601 557 601 514.2 601C471.3 601 428.7 601 385.8 601C343 601 300 601 257.2 601C214.3 601 171.7 601 128.8 601C86 601 43 601 21.5 601L0 601Z" fill="#bb004d"></path>
</svg>