<svg id="visual" viewBox="0 0 900 600" width="900" height="600" xmlns="http://www.w3.org/2000/svg" xmlns:xlink="http://www.w3.org/1999/xlink" version="1.1"><path d="M0 482L16.7 473C33.3 464 66.7 446 100 442.2C133.3 438.3 166.7 448.7 200 448.7C233.3 448.7 266.7 438.3 300 441.3C333.3 444.3 366.7 460.7 400 467C433.3 473.3 466.7 469.7 500 462.8C533.3 456 566.7 446 600 439.8C633.3 433.7 666.7 431.3 700 431.7C733.3 432 766.7 435 800 442.3C833.3 449.7 866.7 461.3 883.3 467.2L900 473L900 601L883.3 601C866.7 601 833.3 601 800 601C766.7 601 733.3 601 700 601C666.7 601 633.3 601 600 601C566.7 601 533.3 601 500 601C466.7 601 433.3 601 400 601C366.7 601 333.3 601 300 601C266.7 601 233.3 601 200 601C166.7 601 133.3 601 100 601C66.7 601 33.3 601 16.7 601L0 601Z" fill="#bb004d"></path><path d="M0 515L16.7 507.8C33.3 500.7 66.7 486.3 100 478.8C133.3 471.3 166.7 470.7 200 473C233.3 475.3 266.7 480.7 300 485.7C333.3 490.7 366.7 495.3 400 490.3C433.3 485.3 466.7 470.7 500 471.2C533.3 471.7 566.7 487.3 600 489.5C633.3 491.7 666.7 480.3 700 475.2C733.3 470 766.7 471 800 473.3C833.3 475.7 866.7 479.3 883.3 481.2L900 483L900 601L883.3 601C866.7 601 833.3 601 800 601C766.7 601 733.3 601 700 601C666.7 601 633.3 601 600 601C566.7 601 533.3 601 500 601C466.7 601 433.3 601 400 601C366.7 601 333.3 601 300 601C266.7 601 233.3 601 200 601C166.7 601 133.3 601 100 601C66.7 601 33.3 601 16.7 601L0 601Z" fill="#b1006e"></path><path d="M0 491L16.7 496.3C33.3 501.7 66.7 512.3 100 519.7C133.3 527 166.7 531 200 531.7C233.3 532.3 266.7 529.7 300 526.3C333.3 523 366.7 519 400 516.5C433.3 514 466.7 513 500 516.3C533.3 519.7 566.7 527.3 600 524.5C633.3 521.7 666.7 508.3 700 505.2C733.3 502 766.7 509 800 507.7C833.3 506.3 866.7 496.7 883.3 491.8L900 487L900 601L883.3 601C866.7 601 833.3 601 800 601C766.7 601 733.3 601 700 601C666.7 601 633.3 601 600 601C566.7 601 533.3 601 500 601C466.7 601 433.3 601 400 601C366.7 601 333.3 601 300 601C266.7 601 233.3 601 200 601C166.7 601 133.3 601 100 601C66.7 601 33.3 601 16.7 601L0 601Z" fill="#99218e"></path><path d="M0 550L16.7 547.7C33.3 545.3 66.7 540.7 100 537C133.3 533.3 166.7 530.7 200 530.7C233.3 530.7 266.7 533.3 300 538.2C333.3 543 366.7 550 400 553.3C433.3 556.7 466.7 556.3 500 556C533.3 555.7 566.7 555.3 600 552.5C633.3 549.7 666.7 544.3 700 542.7C733.3 541 766.7 543 800 542.7C833.3 542.3 866.7 539.7 883.3 538.3L900 537L900 601L883.3 601C866.7 601 833.3 601 800 601C766.7 601 733.3 601 700 601C666.7 601 633.3 601 600 601C566.7 601 533.3 601 500 601C466.7 601 433.3 601 400 601C366.7 601 333.3 601 300 601C266.7 601 233.3 601 200 601C166.7 601 133.3 601 100 601C66.7 601 33.3 601 16.7 601L0 601Z" fill="#6f3aa9"></path><path d="M0 571L16.7 567.2C33.3 563.3 66.7 555.7 100 555.5C133.3 555.3 166.7 562.7 200 563.7C233.3 564.7 266.7 559.3 300 555.7C333.3 552 366.7 550 400 553.2C433.3 556.3 466.7 564.7 500 565.7C533.3 566.7 566.7 560.3 600 560.5C633.3 560.7 666.7 567.3 700 569C733.3 570.7 766.7 567.3 800 564.5C833.3 561.7 866.7 559.3 883.3 558.2L900 557L900 601L883.3 601C866.7 601 833.3 601 800 601C766.7 601 733.3 601 700 601C666.7 601 633.3 601 600 601C566.7 601 533.3 601 500 601C466.7 601 433.3 601 400 601C366.7 601 333.3 601 300 601C266.7 601 233.3 601 200 601C166.7 601 133.3 601 100 601C66.7 601 33.3 601 16.7 601L0 601Z" fill="#004cbb"></path></svg>