<svg id="visual" viewBox="0 0 900 600" width="900" height="600" xmlns="http://www.w3.org/2000/svg" xmlns:xlink="http://www.w3.org/1999/xlink" version="1.1"><path d="M0 484L15 485.8C30 487.7 60 491.3 90 490.3C120 489.3 150 483.7 180 474.5C210 465.3 240 452.7 270 453.7C300 454.7 330 469.3 360 478.2C390 487 420 490 450 479.3C480 468.7 510 444.3 540 441.3C570 438.3 600 456.7 630 472.8C660 489 690 503 720 500.3C750 497.7 780 478.3 810 472.2C840 466 870 473 885 476.5L900 480L900 601L885 601C870 601 840 601 810 601C780 601 750 601 720 601C690 601 660 601 630 601C600 601 570 601 540 601C510 601 480 601 450 601C420 601 390 601 360 601C330 601 300 601 270 601C240 601 210 601 180 601C150 601 120 601 90 601C60 601 30 601 15 601L0 601Z" fill="#4A5568" stroke-linecap="round" stroke-linejoin="miter"></path></svg>