<svg id="visual" viewBox="0 0 900 600" width="900" height="600" xmlns="http://www.w3.org/2000/svg" xmlns:xlink="http://www.w3.org/1999/xlink" version="1.1">
    <path d="M0 385L21.5 389.8C43 394.7 86 404.3 128.8 398.3C171.7 392.3 214.3 370.7 257.2 373.8C300 377 343 405 385.8 415.3C428.7 425.7 471.3 418.3 514.2 411.8C557 405.3 600 399.7 642.8 397C685.7 394.3 728.3 394.7 771.2 387.7C814 380.7 857 366.3 878.5 359.2L900 352L900 601L878.5 601C857 601 814 601 771.2 601C728.3 601 685.7 601 642.8 601C600 601 557 601 514.2 601C471.3 601 428.7 601 385.8 601C343 601 300 601 257.2 601C214.3 601 171.7 601 128.8 601C86 601 43 601 21.5 601L0 601Z" fill="#b500ba"></path>
    <path d="M0 464L21.5 457.2C43 450.3 86 436.7 128.8 432.8C171.7 429 214.3 435 257.2 438.5C300 442 343 443 385.8 437.7C428.7 432.3 471.3 420.7 514.2 423.2C557 425.7 600 442.3 642.8 443.5C685.7 444.7 728.3 430.3 771.2 430.2C814 430 857 444 878.5 451L900 458L900 601L878.5 601C857 601 814 601 771.2 601C728.3 601 685.7 601 642.8 601C600 601 557 601 514.2 601C471.3 601 428.7 601 385.8 601C343 601 300 601 257.2 601C214.3 601 171.7 601 128.8 601C86 601 43 601 21.5 601L0 601Z" fill="#f10081"></path>
    <path d="M0 472L21.5 468.3C43 464.7 86 457.3 128.8 452.2C171.7 447 214.3 444 257.2 443.2C300 442.3 343 443.7 385.8 445.5C428.7 447.3 471.3 449.7 514.2 458.3C557 467 600 482 642.8 489.2C685.7 496.3 728.3 495.7 771.2 488.2C814 480.7 857 466.3 878.5 459.2L900 452L900 601L878.5 601C857 601 814 601 771.2 601C728.3 601 685.7 601 642.8 601C600 601 557 601 514.2 601C471.3 601 428.7 601 385.8 601C343 601 300 601 257.2 601C214.3 601 171.7 601 128.8 601C86 601 43 601 21.5 601L0 601Z" fill="#ff5352"></path>
    <path d="M0 510L21.5 511.7C43 513.3 86 516.7 128.8 520.3C171.7 524 214.3 528 257.2 523.5C300 519 343 506 385.8 505.5C428.7 505 471.3 517 514.2 515.7C557 514.3 600 499.7 642.8 492.5C685.7 485.3 728.3 485.7 771.2 487C814 488.3 857 490.7 878.5 491.8L900 493L900 601L878.5 601C857 601 814 601 771.2 601C728.3 601 685.7 601 642.8 601C600 601 557 601 514.2 601C471.3 601 428.7 601 385.8 601C343 601 300 601 257.2 601C214.3 601 171.7 601 128.8 601C86 601 43 601 21.5 601L0 601Z" fill="#ff9c25"></path>
    <path d="M0 574L21.5 568.2C43 562.3 86 550.7 128.8 543.2C171.7 535.7 214.3 532.3 257.2 530.7C300 529 343 529 385.8 533.8C428.7 538.7 471.3 548.3 514.2 549.3C557 550.3 600 542.7 642.8 543C685.7 543.3 728.3 551.7 771.2 556.8C814 562 857 564 878.5 565L900 566L900 601L878.5 601C857 601 814 601 771.2 601C728.3 601 685.7 601 642.8 601C600 601 557 601 514.2 601C471.3 601 428.7 601 385.8 601C343 601 300 601 257.2 601C214.3 601 171.7 601 128.8 601C86 601 43 601 21.5 601L0 601Z" fill="#ffe800"></path>
</svg>