<svg data-v-345ce79d="" xmlns="http://www.w3.org/2000/svg" viewBox="0 0 179.56 179.56"
    class="icon text-icon-contrast text-undefined">
    <path d="M0 0h179.56v179.56H0z" style="fill: rgb(250, 241, 138);"></path>
    <path
        d="M158.62 125.25c-.47-8.64-3.65-16.68-7-24.47-2.25-5.3-4.22-9.89-.72-15.35 1.29-2 1.1-4.76 1.08-7.24-.11-1.47-.1-3-.34-4.41-1.37-8.49-5.46-10.17-11.92-4.63-2.86 2.46-3-.39-3.55-1.58-4.19-8.57-8.8-16.87-15.15-24-1.59-1.8-.79-2.56.27-4 3.26-4.41 3.21-9.24.82-13.94-2.14-4.21-5.48-4.47-8.38-.87-1.63 2-3 4.27-4.56 6.4-1 1.37-1.94 2.41-4 1.68-7.6-2.68-15.58-2.49-23.26-1.33C64.06 34.22 47.75 40.3 37.76 57c-1.06 1.78-1.95 1-3.16.49a29.75 29.75 0 0 0-13.8-2.61c-3.09.17-4.23 1.72-4.13 4.78.22 6.49 6.36 12.73 13.88 13.64 2.27.27 3.95.16 3.57 3.51-2.95 25.66 4.31 49.42 14.17 72.5 4.49 10.5 15.51 13.49 24.46 7.37 1.57-1.07 2.34 0 3.49.32 4.49 1.36 9.32 2.37 12.87-1.35 2.6-2.73 3.87-1.77 6.17-.05 5.07 3.78 9.59 3.67 14.11-.53 1.75-1.63 2.57-.88 4-.07 7.69 4.3 12.1 3.24 17-4.3 1.2-1.85 2.47-.95 3.79-.88 6.59.38 9.23-1.19 11.6-7.15.31-.79.43-1.29 1.41-1.59 8.73-2.59 11.92-6.87 11.43-15.83Z"
        style="fill: rgb(255, 255, 255);"></path>
    <path
        d="M159.62 125.59c-.48-8.76-3.7-16.91-7.06-24.81-2.28-5.38-4.28-10-.73-15.57 1.31-2 1.12-4.82 1.09-7.34-.1-1.5-.1-3-.34-4.48-1.39-8.61-5.53-10.31-12.08-4.69-2.91 2.5-3-.39-3.61-1.6-4.24-8.69-8.89-17.1-15.36-24.37-1.61-1.82-.8-2.59.27-4 3.31-4.47 3.26-9.37.83-14.13-2.17-4.27-5.55-4.54-8.49-.88-1.66 2.06-3.08 4.33-4.63 6.48-1 1.39-2 2.46-4.08 1.71-7.7-2.72-15.8-2.53-23.58-1.34-18.13 2.75-34.66 8.91-44.79 25.89-1.08 1.79-2 1-3.2.49a30.24 30.24 0 0 0-14-2.65c-3.12.17-4.28 1.75-4.18 4.85.22 6.58 6.45 12.91 14.07 13.83 2.31.28 4 .16 3.62 3.56-3 26 4.37 50.11 14.38 73.52 4.55 10.65 15.72 13.68 24.8 7.47 1.59-1.08 2.37 0 3.54.33 4.55 1.38 9.45 2.4 13-1.37 2.64-2.77 3.92-1.79 6.26 0 5.14 3.83 9.72 3.72 14.31-.54 1.77-1.65 2.6-.89 4.09-.06 7.8 4.35 12.28 3.27 17.25-4.36 1.22-1.88 2.51-1 3.85-.9 6.68.38 9.35-1.21 11.76-7.25.31-.8.43-1.31 1.43-1.62 8.84-2.76 12.07-7.08 11.58-16.17Zm-5.15 8.61c-1.94 3-3.89 5.54-8 2.94-2.19-1.39-2.75.1-3 2.15-.8 7.58-4.36 9.6-11.21 6.25-2.13-1-3.25-1.15-3.75 1.61-1.43 7.78-7 9.91-13.57 5.17a26.82 26.82 0 0 1-3.45-3.53c-1.44-1.53-2.38-1.46-3.14.68-2.42 6.85-5.73 7.83-11.65 3.53-1.07-.78-2-1.75-3-2.61-1.81-1.57-3.1-1.83-4.73.62-3.65 5.5-8.65 6.2-13.86 1.94-2.87-2.35-4.24-2.85-4.93 1.54-.34 2.24-2.52 3-4.63 3-6.24.09-11.7-1.92-14.48-7.8-10.73-22.73-17-46.48-15-71.92.3-3.83.43-3.82 2.42-7.06-4.28.66-8-.71-11.72-2a12.54 12.54 0 0 1-5.68-3.89C19.69 63 17.9 60.71 19 58.54c1.23-2.53 4.11-1.28 6.32-1a26.68 26.68 0 0 1 11.06 4.18c1.46.93 2.86 2.12 5.78 2.23-4-3.91-1.47-6.54.46-9.24 9.89-13.84 24.59-18.52 40.27-20.84 5.34-.79 10.91-.27 16.35.09 1.9.12 4.67-.41 5.29 3 .26 1.46 1.49 1.39 3.38-.28 3.13-2.77 5.47-6.22 7.85-9.63.62-.89 1.1-2.36 2.47-2.16s2 1.66 2.45 2.86c1.63 4.15 0 8.28-4.2 11.17-1.16.8-3.29 1-3 2.85.35 2.4 2.2 1 3.54 1s1.83 1.28 2.54 2.12c6.75 7.91 11.22 17.22 16 26.36 1.52 2.93-1.2 4.14-2.06 6.11-.55 1.26-2.38 2.57-.5 3.81 1.62 1.07 2.09-1 2.87-1.88 2.51-2.87 4.83-5.92 7.47-8.66 2.9-3 4.43-2.52 5.78 1.54 2.46 7.4-.75 17.6-7.11 22.46-1.15.87-3.19 1.49-2.2 3.27 1.29 2.29 3.16.47 4.12-.46 2.8-2.71 3.86-1.44 5.08 1.47 3 7.24 5.07 14.79 7.14 22.32 1.13 4.4.98 8.91-1.68 12.97Z">
    </path>
    <path
        d="M74.76 112.55c.29 7.3-2 13-8.33 16.63-1.23.7-2.78 1.95-3.78-.07-.82-1.68 1-2.16 2-2.88a16.75 16.75 0 0 0 5.88-21c-2.06-4.25-3.62-4.49-6.75-1-4.09 4.58-8.13 9.2-12.25 13.75-.71.78-1.69 2.1-2.87 1s.21-2.06.9-2.88c4.17-5 8.33-9.91 12.57-14.8 3.63-4.19 7.48-3.78 10.39 1a17.86 17.86 0 0 1 2.24 10.25ZM92.3 71.19c-1.28 2.17.14 4.07.78 6.08 1 3.09 1.47 6.18-.56 9.07A6 6 0 0 1 86 89a6.67 6.67 0 0 1-5.41-6.39c-.21-2.54-.58-4.39-3.35-5.23-1.31-.39-1.85-1.85-2-3.25-.08-1-.24-2.13 1-2.52s1.23.63 1.61 1.37c1.56 3 3.1 2.92 4-.36.72-2.65 1.45-3.56 3.85-1.28 1.33 1.25 3.24 1.59 3.5-1.1.12-1.27-1.5-3.37 1.11-3.22 2.05.14 1.83 2.45 1.99 4.17ZM91 81.25c-.54-2.61-.45-5.84-4.76-6-3-.12-3.13 1.92-3.17 3.91-.07 3.11.23 6.43 4.18 6.76 2.55.19 3.66-1.92 3.75-4.67Zm-27.85-3.96c-2.83-.09-5.09 4-6.9 1.69s2.56-2.47 3.38-4.24c-.13-.28-.18-.67-.38-.78-1.29-.69-4.09.14-3.56-2.31.5-2.28 2.91-1 4.25-.64 2.5.73 6.38-.25 6.93 3.47.57 3.93-1.73 7.29-3.87 10.52a1.16 1.16 0 0 1-1.74.27 1.81 1.81 0 0 1-.4-2.27c.72-1.81 2.19-3.3 2.29-5.71Zm45.27-13.49c1.07.51 1.82.81 2.5 1.22.86.5 1.84 1.15 1.33 2.3-.66 1.5-1.9.83-3 .47a4.62 4.62 0 0 1-.91-.39c-2.27-1.47-6.14-1.57-6.4-4.77-.27-3.46 3.35-5.43 5-8.23a1.14 1.14 0 0 1 1.72-.31 1.34 1.34 0 0 1 .29 1.79c-.55 1.18-1.18 2.33-1.85 3.64 2.06 1.2 4.9-2.74 5.92.14s-3.17 1.94-4.6 4.14Z">
    </path>
</svg>