<?xml version="1.0" encoding="utf-8"?>
<!-- Generator: Adobe Illustrator 19.2.1, SVG Export Plug-In . SVG Version: 6.00 Build 0)  -->
<svg version="1.1" id="Layer_1" xmlns="http://www.w3.org/2000/svg" xmlns:xlink="http://www.w3.org/1999/xlink" x="0px" y="0px"
	 viewBox="0 0 108 20" style="enable-background:new 0 0 108 20;" xml:space="preserve">
<style type="text/css">
	.st0{fill:#8CC13F;}
	.st1{fill:#E1097F;}
	.st2{fill:#8D2680;}
	.st3{fill:#00A098;}
	.st4{fill:#383877;}
	.st5{fill:#F05B26;}
</style>
<g>
	<polygon class="st0" points="12,4 12,0 0,0 0,4 0,20 4,20 4,12 8,12 8,8 4,8 4,4 	"/>
	<g>
		<rect x="20" class="st1" width="8" height="4"/>
		<polygon class="st1" points="28,4 28,8 24,8 24,12 28,12 28,16 24,16 24,20 28,20 32,20 32,16 32,4 		"/>
		<rect x="20" y="12" class="st1" width="4" height="4"/>
	</g>
	<g>
		<polygon class="st2" points="44,4 40,4 40,8 40,20 44,20 44,8 48,8 48,4 		"/>
		<rect x="48" y="8" class="st2" width="4" height="12"/>
	</g>
	<polygon class="st3" points="72,8 72,4 68,4 68,0 64,0 64,4 60,4 60,8 64,8 64,16 64,20 68,20 72,20 72,16 68,16 68,8 	"/>
	<g>
		<rect x="80" class="st4" width="4" height="4"/>
		<polygon class="st4" points="84,16 84,8 80,8 80,20 84,20 88,20 88,16 		"/>
	</g>
	<g>
		<rect x="96" class="st5" width="8" height="4"/>
		<polygon class="st5" points="104,4 104,8 100,8 100,12 104,12 104,16 100,16 100,20 104,20 108,20 108,4 		"/>
		<rect x="96" y="12" class="st5" width="4" height="4"/>
	</g>
</g>
</svg>
