<svg height="40" viewBox="0 0 133 40" width="133" xmlns="http://www.w3.org/2000/svg" xmlns:xlink="http://www.w3.org/1999/xlink"><linearGradient id="a" x1="14.645309%" x2="85.354691%" y1="14.645309%" y2="85.363492%"><stop offset=".2" stop-color="#30b396"/><stop offset="1" stop-color="#1e5e71"/></linearGradient><g fill="none"><circle cx="19.99375" cy="19.98125" fill="url(#a)" r="17.753125"/><path d="m18.784375 13.9875-7.35625 21.546875c-.8125-.446875-1.58125-.959375-2.309375-1.525l1.134375-3.26875-2.528125-.86875.859375-2.56875 2.528125.86875 1.728125-5.05625-2.528125-.86875.86875-2.5375 2.528125.86875 1.728125-5.05625-2.528125-.86875.86875-2.5375 2.528125.86875 1.6875-4.99375-2.496875-.909375.440625-1.26875 5.05625 1.728125-.378125 1.1-1.76875 5.184375-.059375.159375zm-12.996875 16.640625c.6625.884375 1.40625 1.703125 2.21875 2.446875l.51875-1.515625zm3.29375-13.01875 3.8 1.296875.865625-2.534375-3.8-1.296875zm-2.590625 7.590625 3.8 1.296875.865625-2.534375-3.8-1.296875zm31.259375-5.21875c0-2.534375-.534375-4.940625-1.490625-7.11875l-13.325-4.559375-9.603125 28.134375c2.059375.834375 4.30625 1.3 6.665625 1.3 9.80625 0 17.753125-7.946875 17.753125-17.753125zm-26.071875-9.971875 3.8 1.296875.865625-2.534375-3.8-1.296875z" fill="#fff"/><path d="m19.99375 2.23125c9.80625 0 17.753125 7.946875 17.753125 17.753125s-7.946875 17.753125-17.753125 17.753125-17.753125-7.946875-17.753125-17.753125 7.946875-17.753125 17.753125-17.753125m0-2.228125c-11.034375 0-19.98125 8.946875-19.98125 19.98125s8.946875 19.98125 19.98125 19.98125 19.98125-8.946875 19.98125-19.98125-8.946875-19.98125-19.98125-19.98125z" fill="#1e5e71"/><path d="m114.18125 6.93125h5.734375v11.63125c1.21875-1.34375 2.953125-2.078125 4.765625-2.078125 4.790625 0 8.221875 3.65 8.221875 8.49375s-3.53125 8.5875-7.91875 8.5875c-2.346875 0-3.93125-.8-5.071875-2.28125v1.759375h-5.734375v-26.109375zm9.203125 21.8c1.953125 0 3.6375-1.696875 3.6375-3.615625 0-2.08125-1.60625-3.771875-3.6875-3.771875s-3.6375 1.765625-3.6375 3.63125c0 2.059375 1.728125 3.75625 3.6875 3.75625zm-13.46875-3.540625v.89375h-11.990625c0 2.153125 1.246875 3.509375 3.365625 3.478125 1.240625-.01875 2.390625-.496875 2.85625-1.509375h5.475c-1.13125 3.775-4.134375 5.515625-8.625 5.515625-4.75625 0-8.81875-2.99375-8.81875-8.49375 0-5.09375 3.396875-8.521875 8.953125-8.521875 5.24375 0 8.78125 3.521875 8.78125 8.640625zm-11.75-2.403125h6.484375c-.5375-1.8625-1.703125-2.578125-3.41875-2.578125-1.55 0-2.803125.99375-3.065625 2.578125zm-26.596875-15.85625h5.734375v15.85625l5.40625-5.80625h7.771875l-7.54375 7.425 8.1625 8.63125h-7.99375l-5.834375-6.553125v6.553125h-5.70625v-26.109375zm-21.890625 23.959375 2.56875-5.015625c1.615625 1.6125 3.809375 2.45 5.7625 2.45 1.41875 0 2.721875-.925 2.721875-2.35s-1.2625-1.9-2.8875-2.40625l-2.4875-.771875c-2.890625-.896875-4.746875-2.546875-4.746875-6.165625 0-4.95625 3.38125-8.021875 8.3125-8.021875 2.35 0 5.096875.734375 7.375 1.9375l-2.46875 4.834375c-1.125-1.009375-2.575-1.584375-4.0875-1.609375-1.225-.01875-2.60625.765625-2.60625 2.040625s1.028125 1.715625 2.396875 2.128125l2.53125.759375c2.621875.7875 5.24375 2.640625 5.24375 6.44375 0 3.03125-1.346875 8.434375-9.3125 8.434375-3.246875 0-5.878125-1-8.3125-2.6875z" fill="#324443"/><path d="m71.565625 6.93125h5.734375l-5.734375 5.734375zm42.6125 0v5.734375l5.734375-5.734375z" fill="#30b396"/></g></svg>