<svg height="700pt" preserveAspectRatio="xMidYMid meet" viewBox="0 0 700 700" width="700pt" xmlns="http://www.w3.org/2000/svg"><path d="m3305 6993c-351-28-553-64-835-150-394-119-826-348-1165-619-149-118-439-412-553-559-706-913-923-2029-611-3143 169-600 556-1210 1036-1634 593-522 1291-816 2082-878 873-67 1768 219 2460 788 535 440 946 1059 1136 1712 276 952 149 1953-353 2790-542 905-1456 1513-2502 1664-206 30-525 43-695 29zm473-1945 2-518h370 370v-380-380h-370-371l3-602c3-601 3-603 26-659 27-68 90-143 143-169 77-40 152-50 382-50h217v-400-400h-417c-328 0-438 3-513 15-380 62-649 280-758 615-56 171-55 151-61 925l-6 720-278 3-277 2 2 326 3 325 75 25c300 101 537 307 679 592 63 124 115 312 136 485l6 47 317-2 317-3z" transform="matrix(.1 0 0 -.1 0 700)"/></svg>