<svg id="visual" viewBox="0 0 900 600" width="900" height="600" xmlns="http://www.w3.org/2000/svg" xmlns:xlink="http://www.w3.org/1999/xlink" version="1.1"><path d="M0 517L11.5 511.8C23 506.7 46 496.3 69 497.5C92 498.7 115 511.3 138.2 516.3C161.3 521.3 184.7 518.7 207.8 516.7C231 514.7 254 513.3 277 516.2C300 519 323 526 346 521.8C369 517.7 392 502.3 415.2 502C438.3 501.7 461.7 516.3 484.8 519.3C508 522.3 531 513.7 554 508.3C577 503 600 501 623 503.8C646 506.7 669 514.3 692.2 518.5C715.3 522.7 738.7 523.3 761.8 519C785 514.7 808 505.3 831 504.7C854 504 877 512 888.5 516L900 520L900 601L888.5 601C877 601 854 601 831 601C808 601 785 601 761.8 601C738.7 601 715.3 601 692.2 601C669 601 646 601 623 601C600 601 577 601 554 601C531 601 508 601 484.8 601C461.7 601 438.3 601 415.2 601C392 601 369 601 346 601C323 601 300 601 277 601C254 601 231 601 207.8 601C184.7 601 161.3 601 138.2 601C115 601 92 601 69 601C46 601 23 601 11.5 601L0 601Z" fill="#e2e8f0" stroke-linecap="round" stroke-linejoin="miter"></path></svg>