<svg id="visual" viewBox="0 0 900 600" width="900" height="600" xmlns="http://www.w3.org/2000/svg" xmlns:xlink="http://www.w3.org/1999/xlink" version="1.1"><path d="M0 519L11.5 515.7C23 512.3 46 505.7 69 498.8C92 492 115 485 138.2 484.3C161.3 483.7 184.7 489.3 207.8 495.3C231 501.3 254 507.7 277 516.7C300 525.7 323 537.3 346 531.7C369 526 392 503 415.2 492.3C438.3 481.7 461.7 483.3 484.8 489.5C508 495.7 531 506.3 554 504.2C577 502 600 487 623 479.2C646 471.3 669 470.7 692.2 481.3C715.3 492 738.7 514 761.8 518.3C785 522.7 808 509.3 831 499.3C854 489.3 877 482.7 888.5 479.3L900 476L900 601L888.5 601C877 601 854 601 831 601C808 601 785 601 761.8 601C738.7 601 715.3 601 692.2 601C669 601 646 601 623 601C600 601 577 601 554 601C531 601 508 601 484.8 601C461.7 601 438.3 601 415.2 601C392 601 369 601 346 601C323 601 300 601 277 601C254 601 231 601 207.8 601C184.7 601 161.3 601 138.2 601C115 601 92 601 69 601C46 601 23 601 11.5 601L0 601Z" fill="#4A5568" stroke-linecap="round" stroke-linejoin="miter"></path></svg>