<svg width="260" height="260" viewBox="0 0 260 260" fill="none" xmlns="http://www.w3.org/2000/svg">
<g clip-path="url(#clip0_2_35)">
<g clip-path="url(#clip1_2_35)">
<mask id="mask0_2_35" style="mask-type:luminance" maskUnits="userSpaceOnUse" x="-11" y="-11" width="283" height="283">
<path d="M271.187 120.467L120.467 -11L-11 139.72L139.72 271.187L271.187 120.467Z" fill="white"/>
</mask>
<g mask="url(#mask0_2_35)">
<path d="M88.7015 92.6821C112.775 63.2484 97.117 39.4548 86.279 31.2372C129.789 21.7237 134.049 92.6826 130.741 129.351C106.697 129.392 64.6282 122.116 88.7015 92.6821Z" fill="#FF5A5A" stroke="black"/>
<path d="M166.808 88.0942C197.711 113.449 221.8 98.0484 229.981 87.1789C240.877 131.894 167.96 134.447 130.139 130.133C129.486 105.556 135.906 62.7397 166.808 88.0942Z" fill="#326BFF" stroke="black"/>
<path d="M171.919 166.966C146.474 198.367 161.666 222.145 172.443 230.109C127.836 241.892 125.741 169.039 130.269 131.139C154.754 129.998 197.363 135.564 171.919 166.966Z" fill="#CB37FF" stroke="black"/>
<path d="M92.4901 171.661C61.4986 145.738 37.4831 160.564 29.3492 171.218C18.2771 126.434 91.1515 125.456 128.973 130.565C129.725 155.065 123.481 197.585 92.4901 171.661Z" fill="#FFED4D" stroke="black"/>
</g>
</g>
</g>
<defs>
<clipPath id="clip0_2_35">
<rect width="260" height="260" fill="white"/>
</clipPath>
<clipPath id="clip1_2_35">
<rect width="200" height="200" fill="white" transform="translate(120.467 -11) rotate(41.0969)"/>
</clipPath>
</defs>
</svg>
