<svg xmlns="http://www.w3.org/2000/svg" width="112" height="28" fill="none" viewBox="0 0 112 28"><path fill="currentColor" d="M1.565 22h3.391l1.081-11.214L9.986 21.57h2.089l3.959-10.784L17.104 22h3.402L18.785 4.675h-3.613l-4.136 10.836L6.899 4.675H3.287L1.565 22Zm24.785.336c.735 0 1.421-.15 2.058-.451a5.262 5.262 0 0 0 1.701-1.303V22h3.224V11.248h-3.224v1.313a4.295 4.295 0 0 0-1.627-1.208 5.165 5.165 0 0 0-2.132-.441c-1.036 0-1.956.252-2.761.756a5.225 5.225 0 0 0-1.88 2.037c-.455.854-.682 1.82-.682 2.898 0 1.106.238 2.093.714 2.961a5.464 5.464 0 0 0 1.91 2.037c.806.49 1.705.735 2.7.735Zm.956-2.74c-.833 0-1.523-.28-2.069-.84-.546-.56-.819-1.271-.819-2.132 0-.861.273-1.571.82-2.131.552-.56 1.242-.84 2.068-.84.833 0 1.519.28 2.058.84.546.553.819 1.263.819 2.131 0 .868-.27 1.582-.809 2.142-.539.553-1.228.83-2.068.83ZM35.025 22h3.223v-6.363c0-.623.207-1.145.62-1.565.413-.426.976-.64 1.69-.64.7 0 1.25.217 1.649.651.406.427.609 1.025.609 1.796V22h3.223v-6.804c0-.854-.178-1.6-.535-2.236a3.818 3.818 0 0 0-1.48-1.502c-.624-.364-1.348-.546-2.174-.546-.742 0-1.425.143-2.048.43a4.626 4.626 0 0 0-1.554 1.103v-1.197h-3.223V22Zm17.678 5.775c1.42 0 2.593-.238 3.517-.714.931-.469 1.624-1.116 2.08-1.942.461-.826.692-1.768.692-2.825V11.248H55.77v1.313a4.332 4.332 0 0 0-1.607-1.208 4.996 4.996 0 0 0-2.1-.441c-1.036 0-1.96.248-2.772.745a5.355 5.355 0 0 0-1.91 2.037c-.463.861-.694 1.838-.694 2.93 0 1.113.238 2.1.714 2.961a5.462 5.462 0 0 0 1.922 2.026 5.031 5.031 0 0 0 2.656.725c.75 0 1.45-.154 2.1-.462a4.933 4.933 0 0 0 1.69-1.291v1.512c0 .867-.286 1.568-.86 2.1-.567.532-1.306.797-2.216.797a4.04 4.04 0 0 1-1.869-.44c-.574-.294-1.008-.69-1.302-1.187l-2.625 1.281a4.748 4.748 0 0 0 2.153 2.331c.987.532 2.205.798 3.654.798Zm.241-8.18c-.84 0-1.53-.276-2.068-.829-.532-.56-.798-1.267-.798-2.121 0-.868.273-1.582.819-2.142.553-.567 1.242-.85 2.068-.85.826 0 1.512.283 2.058.85.546.56.82 1.274.82 2.142 0 .854-.274 1.561-.82 2.121-.539.553-1.232.83-2.079.83Zm12.224 2.741c.735 0 1.42-.15 2.058-.451a5.262 5.262 0 0 0 1.7-1.303V22h3.224V11.248h-3.223v1.313a4.295 4.295 0 0 0-1.628-1.208 5.165 5.165 0 0 0-2.131-.441c-1.036 0-1.957.252-2.762.756a5.225 5.225 0 0 0-1.88 2.037c-.454.854-.682 1.82-.682 2.898 0 1.106.238 2.093.714 2.961a5.464 5.464 0 0 0 1.911 2.037c.805.49 1.705.735 2.699.735Zm.955-2.74c-.833 0-1.522-.28-2.068-.84-.546-.56-.82-1.271-.82-2.132 0-.861.274-1.571.82-2.131.553-.56 1.242-.84 2.068-.84.833 0 1.52.28 2.058.84.546.553.82 1.263.82 2.131 0 .868-.27 1.582-.81 2.142-.538.553-1.228.83-2.068.83ZM74.303 22h4.757c1.232 0 2.377-.217 3.434-.651a8.569 8.569 0 0 0 2.782-1.837 8.344 8.344 0 0 0 1.859-2.752c.44-1.05.661-2.184.661-3.402s-.224-2.351-.672-3.402a8.433 8.433 0 0 0-1.858-2.771 8.514 8.514 0 0 0-2.772-1.848c-1.057-.441-2.202-.662-3.434-.662h-4.756V22Zm3.403-3.045V7.72h.976c1.05 0 1.985.245 2.804.735a5.242 5.242 0 0 1 1.942 2.005c.476.847.714 1.81.714 2.888 0 1.071-.238 2.03-.714 2.877a5.242 5.242 0 0 1-1.942 2.005c-.82.483-1.754.725-2.804.725h-.976Zm16.12 3.381c1.135 0 2.164-.245 3.088-.735.924-.49 1.638-1.169 2.142-2.037l-2.32-1.166c-.4.477-.816.823-1.25 1.04-.427.217-.92.326-1.48.326-.897 0-1.618-.249-2.164-.746s-.819-1.155-.819-1.974h8.243c.02-.182.031-.305.031-.367.007-.07.01-.151.01-.242 0-1.099-.237-2.061-.713-2.887a4.947 4.947 0 0 0-1.974-1.932c-.84-.47-1.82-.704-2.94-.704-1.12 0-2.132.255-3.035.766a5.839 5.839 0 0 0-2.142 2.048c-.532.861-.798 1.827-.798 2.898 0 1.085.266 2.058.798 2.919a5.832 5.832 0 0 0 2.195 2.047c.924.497 1.967.746 3.129.746Zm-2.687-7.077c.07-.623.329-1.113.777-1.47s1.022-.535 1.722-.535c.665 0 1.218.178 1.659.535.448.357.728.847.84 1.47h-4.998ZM98.122 22h3.864l2.688-3.402L107.362 22h3.864l-4.589-5.617 3.938-5.135h-3.738l-2.163 2.888-2.163-2.888h-3.739l3.938 5.135L98.122 22Z"/></svg>